<svg width="24" height="20" viewBox="0 0 24 20" fill="none" xmlns="http://www.w3.org/2000/svg">
<path d="M21.3334 10V4.16667H23.6667V11.1667H21.3334M21.3334 15.8333H23.6667V13.5H21.3334M9.66671 11.1667C12.7817 11.1667 19 12.73 19 15.8333V19.3333H0.333374V15.8333C0.333374 12.73 6.55171 11.1667 9.66671 11.1667ZM9.66671 0.666668C10.9044 0.666668 12.0914 1.15833 12.9665 2.0335C13.8417 2.90867 14.3334 4.09566 14.3334 5.33333C14.3334 6.57101 13.8417 7.758 12.9665 8.63317C12.0914 9.50834 10.9044 10 9.66671 10C8.42903 10 7.24205 9.50834 6.36688 8.63317C5.49171 7.758 5.00004 6.57101 5.00004 5.33333C5.00004 4.09566 5.49171 2.90867 6.36688 2.0335C7.24205 1.15833 8.42903 0.666668 9.66671 0.666668ZM9.66671 13.3833C6.20171 13.3833 2.55004 15.0867 2.55004 15.8333V17.1167H16.7834V15.8333C16.7834 15.0867 13.1317 13.3833 9.66671 13.3833ZM9.66671 2.88333C9.01693 2.88333 8.39376 3.14146 7.9343 3.60092C7.47483 4.06039 7.21671 4.68355 7.21671 5.33333C7.21671 5.98311 7.47483 6.60628 7.9343 7.06575C8.39376 7.52521 9.01693 7.78333 9.66671 7.78333C10.3165 7.78333 10.9397 7.52521 11.3991 7.06575C11.8586 6.60628 12.1167 5.98311 12.1167 5.33333C12.1167 4.68355 11.8586 4.06039 11.3991 3.60092C10.9397 3.14146 10.3165 2.88333 9.66671 2.88333Z" fill="black"/>
</svg>
